<svg xmlns="http://www.w3.org/2000/svg" xmlns:xlink="http://www.w3.org/1999/xlink" width="180" zoomAndPan="magnify" viewBox="0 0 135 30.000001" height="40" preserveAspectRatio="xMidYMid meet" version="1.0"><defs><g/><clipPath id="8793dc2c92"><path d="M 12.101562 3.792969 L 36.050781 3.792969 L 36.050781 25.566406 L 12.101562 25.566406 Z M 12.101562 3.792969 " clip-rule="nonzero"/></clipPath></defs><g clip-path="url(#8793dc2c92)"><path fill="#3871c1" d="M 17.539062 10.386719 C 17.316406 10.386719 17.132812 10.203125 17.132812 9.976562 C 17.132812 9.753906 17.316406 9.570312 17.539062 9.570312 C 17.761719 9.570312 17.941406 9.753906 17.941406 9.976562 C 17.941406 10.203125 17.761719 10.386719 17.539062 10.386719 Z M 31.445312 12.097656 L 36.050781 11.277344 L 30.277344 10.496094 C 28.859375 9.117188 26.921875 8.488281 25.871094 8.234375 C 25.453125 6.269531 25.699219 3.792969 25.699219 3.792969 C 23.550781 5.046875 22.144531 6.832031 21.582031 7.632812 C 16.007812 8.3125 12.101562 11.679688 12.101562 11.679688 C 14.664062 14.332031 17.726562 14.96875 19.738281 15.058594 L 18.960938 16.65625 L 21.5 15.003906 C 21.761719 14.972656 21.910156 14.945312 21.910156 14.945312 C 21.746094 14.945312 21.589844 14.941406 21.429688 14.933594 C 21.328125 14.925781 21.175781 14.914062 20.988281 14.914062 C 19.53125 14.824219 18.316406 14.554688 17.320312 14.207031 L 17.050781 13.960938 L 17.859375 14.066406 L 17.515625 13.46875 L 18.511719 13.8125 L 18.320312 13.261719 C 18.324219 13.261719 18.324219 13.261719 18.328125 13.261719 L 19.414062 13.695312 L 19.058594 13.257812 L 20.132812 13.640625 L 19.980469 13.296875 L 20.828125 13.574219 L 20.605469 13.355469 C 21.023438 13.414062 21.304688 13.472656 21.304688 13.472656 C 19.460938 12.75 18.042969 12.816406 17.128906 13.050781 C 16.457031 13.222656 16.3125 13.597656 16.28125 13.785156 C 14.324219 12.867188 13.722656 12.265625 13.722656 12.265625 C 13.722656 12.265625 19.464844 8.953125 23.425781 13.117188 C 23.425781 13.117188 23.40625 12.191406 22.695312 11.257812 C 22.625 11.164062 22.582031 11.117188 22.582031 11.117188 C 23.980469 11.699219 24.828125 13.546875 24.828125 13.546875 C 25.058594 12.046875 24.367188 10.921875 24.367188 10.921875 C 25.84375 11.738281 26.074219 14.011719 26.074219 14.011719 C 26.613281 12.457031 25.535156 10.824219 25.535156 10.824219 C 26.613281 11.660156 26.746094 13.058594 26.746094 13.058594 C 26.871094 12.496094 26.863281 12.003906 26.800781 11.597656 C 27.480469 11.832031 30.507812 13.0625 29.824219 15.890625 C 29.648438 16.523438 29.132812 17.617188 27.632812 18.84375 C 27.613281 18.824219 27.59375 18.804688 27.574219 18.785156 C 27.578125 18.789062 27.902344 18.164062 27.929688 18.097656 C 28.007812 17.890625 28.070312 17.679688 28.113281 17.460938 C 28.1875 17.082031 28.210938 16.667969 28.125 16.289062 C 28.121094 16.277344 28.117188 16.265625 28.117188 16.265625 L 28.117188 16.269531 C 27.5 14.492188 23.769531 15.128906 23.769531 15.128906 C 24.894531 14.996094 26.101562 15.34375 26.101562 15.34375 C 28.214844 16.0625 27.707031 17.382812 26.984375 18.308594 C 26.203125 17.925781 23.441406 17.265625 23.441406 17.265625 C 23.441406 17.265625 25.628906 18.886719 25.773438 20.054688 C 25.917969 21.21875 24.820312 25.566406 24.820312 25.566406 C 27.546875 23.707031 27.976562 20.148438 28.039062 19.4375 C 29.714844 18.589844 32.503906 16.671875 31.890625 13.449219 C 31.796875 12.957031 31.640625 12.507812 31.445312 12.097656 " fill-opacity="1" fill-rule="nonzero"/></g><g fill="#ffffff" fill-opacity="1"><g transform="translate(40.88488, 18.321274)"><g><path d="M 0.546875 -0.175781 C 0.546875 -0.0546875 0.601562 0 0.71875 0 L 3.339844 0 C 4.367188 0 4.910156 -0.546875 4.910156 -1.570312 L 4.910156 -7.148438 C 4.910156 -8.175781 4.367188 -8.730469 3.339844 -8.730469 L 0.71875 -8.730469 C 0.601562 -8.730469 0.546875 -8.667969 0.546875 -8.558594 Z M 2.03125 -1.441406 L 2.03125 -7.292969 L 3.035156 -7.292969 C 3.316406 -7.292969 3.472656 -7.136719 3.472656 -6.84375 L 3.472656 -1.878906 C 3.472656 -1.582031 3.316406 -1.441406 3.035156 -1.441406 Z M 2.03125 -1.441406 "/></g></g></g><g fill="#ffffff" fill-opacity="1"><g transform="translate(46.342269, 18.321274)"><g><path d="M 5.808594 0 C 5.9375 0 5.980469 -0.0664062 5.960938 -0.1875 L 4.148438 -8.578125 C 4.125 -8.6875 4.058594 -8.730469 3.960938 -8.730469 L 2.445312 -8.730469 C 2.347656 -8.730469 2.28125 -8.6875 2.257812 -8.578125 L 0.449219 -0.1875 C 0.414062 -0.0664062 0.46875 0 0.589844 0 L 1.757812 0 C 1.855469 0 1.910156 -0.0546875 1.933594 -0.152344 L 2.226562 -1.746094 L 4.167969 -1.746094 L 4.476562 -0.152344 C 4.496094 -0.0546875 4.550781 0 4.648438 0 Z M 3.898438 -3.011719 L 2.5 -3.011719 L 3.199219 -6.820312 Z M 3.898438 -3.011719 "/></g></g></g><g fill="#ffffff" fill-opacity="1"><g transform="translate(52.738328, 18.321274)"><g><path d="M 3.898438 -8.730469 C 3.777344 -8.730469 3.722656 -8.667969 3.722656 -8.558594 L 3.722656 -3.949219 L 3.65625 -3.949219 L 1.996094 -8.589844 C 1.964844 -8.6875 1.898438 -8.730469 1.800781 -8.730469 L 0.71875 -8.730469 C 0.609375 -8.730469 0.546875 -8.667969 0.546875 -8.558594 L 0.546875 -0.175781 C 0.546875 -0.0664062 0.609375 0 0.71875 0 L 1.855469 0 C 1.976562 0 2.03125 -0.0664062 2.03125 -0.175781 L 2.03125 -4.800781 L 2.085938 -4.800781 L 3.753906 -0.140625 C 3.789062 -0.0429688 3.851562 0 3.949219 0 L 5.03125 0 C 5.140625 0 5.207031 -0.0664062 5.207031 -0.175781 L 5.207031 -8.558594 C 5.207031 -8.667969 5.140625 -8.730469 5.03125 -8.730469 Z M 3.898438 -8.730469 "/></g></g></g><g fill="#ffffff" fill-opacity="1"><g transform="translate(58.490414, 18.321274)"><g><path d="M 0.71875 -8.730469 C 0.601562 -8.730469 0.546875 -8.667969 0.546875 -8.558594 L 0.546875 -0.175781 C 0.546875 -0.0664062 0.601562 0 0.71875 0 L 1.855469 0 C 1.964844 0 2.03125 -0.0664062 2.03125 -0.175781 L 2.03125 -8.558594 C 2.03125 -8.667969 1.964844 -8.730469 1.855469 -8.730469 Z M 0.71875 -8.730469 "/></g></g></g><g fill="#ffffff" fill-opacity="1"><g transform="translate(61.066301, 18.321274)"><g><path d="M 2.03125 -1.441406 L 4.628906 -1.441406 C 4.746094 -1.441406 4.800781 -1.375 4.800781 -1.265625 L 4.800781 -0.175781 C 4.800781 -0.0546875 4.746094 0 4.628906 0 L 0.71875 0 C 0.609375 0 0.546875 -0.0546875 0.546875 -0.175781 L 0.546875 -8.558594 C 0.546875 -8.667969 0.609375 -8.730469 0.71875 -8.730469 L 1.855469 -8.730469 C 1.976562 -8.730469 2.03125 -8.667969 2.03125 -8.558594 Z M 2.03125 -1.441406 "/></g></g></g><g fill="#ffffff" fill-opacity="1"><g transform="translate(66.41454, 18.321274)"><g><path d="M 2.03125 -1.441406 L 4.628906 -1.441406 C 4.746094 -1.441406 4.800781 -1.375 4.800781 -1.265625 L 4.800781 -0.175781 C 4.800781 -0.0546875 4.746094 0 4.628906 0 L 0.71875 0 C 0.609375 0 0.546875 -0.0546875 0.546875 -0.175781 L 0.546875 -8.558594 C 0.546875 -8.667969 0.609375 -8.730469 0.71875 -8.730469 L 1.855469 -8.730469 C 1.976562 -8.730469 2.03125 -8.667969 2.03125 -8.558594 Z M 2.03125 -1.441406 "/></g></g></g><g fill="#ffffff" fill-opacity="1"><g transform="translate(71.762778, 18.321274)"><g><path d="M 0.546875 -1.570312 C 0.546875 -0.546875 1.089844 0 2.117188 0 L 3.339844 0 C 4.367188 0 4.910156 -0.546875 4.910156 -1.570312 L 4.910156 -7.160156 C 4.910156 -8.1875 4.367188 -8.730469 3.339844 -8.730469 L 2.117188 -8.730469 C 1.089844 -8.730469 0.546875 -8.1875 0.546875 -7.160156 Z M 2.433594 -1.40625 C 2.148438 -1.40625 1.996094 -1.550781 1.996094 -1.84375 L 1.996094 -6.886719 C 1.996094 -7.171875 2.148438 -7.324219 2.433594 -7.324219 L 3.066406 -7.324219 C 3.351562 -7.324219 3.503906 -7.171875 3.503906 -6.886719 L 3.503906 -1.84375 C 3.503906 -1.550781 3.351562 -1.40625 3.066406 -1.40625 Z M 2.433594 -1.40625 "/></g></g></g><g fill="#ffffff" fill-opacity="1"><g transform="translate(77.220166, 18.321274)"><g/></g></g><g fill="#ffffff" fill-opacity="1"><g transform="translate(79.94886, 18.321274)"><g><path d="M 4.902344 -8.558594 C 4.902344 -8.667969 4.855469 -8.730469 4.726562 -8.730469 L 0.710938 -8.730469 C 0.609375 -8.730469 0.546875 -8.667969 0.546875 -8.558594 L 0.546875 -0.175781 C 0.546875 -0.0664062 0.609375 0 0.710938 0 L 4.726562 0 C 4.855469 0 4.902344 -0.0664062 4.902344 -0.175781 L 4.902344 -1.265625 C 4.902344 -1.386719 4.855469 -1.441406 4.726562 -1.441406 L 1.996094 -1.441406 L 1.996094 -3.644531 L 4.082031 -3.644531 C 4.191406 -3.644531 4.257812 -3.710938 4.257812 -3.832031 L 4.257812 -4.910156 C 4.257812 -5.03125 4.191406 -5.097656 4.082031 -5.097656 L 1.996094 -5.097656 L 1.996094 -7.28125 L 4.726562 -7.28125 C 4.855469 -7.28125 4.902344 -7.355469 4.902344 -7.464844 Z M 4.902344 -8.558594 "/></g></g></g><g fill="#ffffff" fill-opacity="1"><g transform="translate(85.395333, 18.321274)"><g><path d="M 3.679688 -4.453125 L 5.347656 -8.46875 C 5.414062 -8.621094 5.359375 -8.730469 5.183594 -8.730469 L 4.09375 -8.730469 C 3.972656 -8.730469 3.886719 -8.6875 3.84375 -8.578125 L 2.828125 -5.992188 L 1.8125 -8.578125 C 1.769531 -8.6875 1.679688 -8.730469 1.5625 -8.730469 L 0.46875 -8.730469 C 0.292969 -8.730469 0.238281 -8.621094 0.304688 -8.46875 L 1.964844 -4.453125 L 0.238281 -0.261719 C 0.175781 -0.109375 0.230469 0 0.402344 0 L 1.527344 0 C 1.648438 0 1.734375 -0.0429688 1.777344 -0.152344 L 2.828125 -2.792969 L 3.875 -0.152344 C 3.917969 -0.0429688 4.003906 0 4.125 0 L 5.25 0 C 5.425781 0 5.480469 -0.109375 5.414062 -0.261719 Z M 3.679688 -4.453125 "/></g></g></g><g fill="#ffffff" fill-opacity="1"><g transform="translate(91.267478, 18.321274)"><g><path d="M 0.546875 -0.175781 C 0.546875 -0.0664062 0.609375 0 0.71875 0 L 1.855469 0 C 1.976562 0 2.03125 -0.0664062 2.03125 -0.175781 L 2.03125 -2.925781 L 3.339844 -2.925781 C 4.367188 -2.925781 4.910156 -3.480469 4.910156 -4.496094 L 4.910156 -7.160156 C 4.910156 -8.1875 4.367188 -8.730469 3.339844 -8.730469 L 0.71875 -8.730469 C 0.609375 -8.730469 0.546875 -8.667969 0.546875 -8.558594 Z M 2.03125 -4.367188 L 2.03125 -7.292969 L 2.992188 -7.292969 C 3.285156 -7.292969 3.425781 -7.136719 3.425781 -6.855469 L 3.425781 -4.800781 C 3.425781 -4.53125 3.285156 -4.367188 2.992188 -4.367188 Z M 2.03125 -4.367188 "/></g></g></g><g fill="#ffffff" fill-opacity="1"><g transform="translate(96.724867, 18.321274)"><g><path d="M 4.902344 -8.558594 C 4.902344 -8.667969 4.855469 -8.730469 4.726562 -8.730469 L 0.710938 -8.730469 C 0.609375 -8.730469 0.546875 -8.667969 0.546875 -8.558594 L 0.546875 -0.175781 C 0.546875 -0.0664062 0.609375 0 0.710938 0 L 4.726562 0 C 4.855469 0 4.902344 -0.0664062 4.902344 -0.175781 L 4.902344 -1.265625 C 4.902344 -1.386719 4.855469 -1.441406 4.726562 -1.441406 L 1.996094 -1.441406 L 1.996094 -3.644531 L 4.082031 -3.644531 C 4.191406 -3.644531 4.257812 -3.710938 4.257812 -3.832031 L 4.257812 -4.910156 C 4.257812 -5.03125 4.191406 -5.097656 4.082031 -5.097656 L 1.996094 -5.097656 L 1.996094 -7.28125 L 4.726562 -7.28125 C 4.855469 -7.28125 4.902344 -7.355469 4.902344 -7.464844 Z M 4.902344 -8.558594 "/></g></g></g><g fill="#ffffff" fill-opacity="1"><g transform="translate(102.171339, 18.321274)"><g><path d="M 0.546875 -0.175781 C 0.546875 -0.0546875 0.601562 0 0.71875 0 L 3.339844 0 C 4.367188 0 4.910156 -0.546875 4.910156 -1.570312 L 4.910156 -7.148438 C 4.910156 -8.175781 4.367188 -8.730469 3.339844 -8.730469 L 0.71875 -8.730469 C 0.601562 -8.730469 0.546875 -8.667969 0.546875 -8.558594 Z M 2.03125 -1.441406 L 2.03125 -7.292969 L 3.035156 -7.292969 C 3.316406 -7.292969 3.472656 -7.136719 3.472656 -6.84375 L 3.472656 -1.878906 C 3.472656 -1.582031 3.316406 -1.441406 3.035156 -1.441406 Z M 2.03125 -1.441406 "/></g></g></g><g fill="#ffffff" fill-opacity="1"><g transform="translate(107.628727, 18.321274)"><g><path d="M 0.71875 -8.730469 C 0.601562 -8.730469 0.546875 -8.667969 0.546875 -8.558594 L 0.546875 -0.175781 C 0.546875 -0.0664062 0.601562 0 0.71875 0 L 1.855469 0 C 1.964844 0 2.03125 -0.0664062 2.03125 -0.175781 L 2.03125 -8.558594 C 2.03125 -8.667969 1.964844 -8.730469 1.855469 -8.730469 Z M 0.71875 -8.730469 "/></g></g></g><g fill="#ffffff" fill-opacity="1"><g transform="translate(110.204615, 18.321274)"><g><path d="M 0.503906 -8.730469 C 0.394531 -8.730469 0.328125 -8.667969 0.328125 -8.558594 L 0.328125 -7.464844 C 0.328125 -7.355469 0.394531 -7.292969 0.503906 -7.292969 L 1.769531 -7.292969 L 1.769531 -0.175781 C 1.769531 -0.0546875 1.832031 0 1.941406 0 L 3.078125 0 C 3.199219 0 3.253906 -0.0546875 3.253906 -0.175781 L 3.253906 -7.292969 L 4.519531 -7.292969 C 4.640625 -7.292969 4.691406 -7.355469 4.691406 -7.464844 L 4.691406 -8.558594 C 4.691406 -8.667969 4.640625 -8.730469 4.519531 -8.730469 Z M 0.503906 -8.730469 "/></g></g></g><g fill="#ffffff" fill-opacity="1"><g transform="translate(115.225409, 18.321274)"><g><path d="M 0.546875 -1.570312 C 0.546875 -0.546875 1.089844 0 2.117188 0 L 3.339844 0 C 4.367188 0 4.910156 -0.546875 4.910156 -1.570312 L 4.910156 -7.160156 C 4.910156 -8.1875 4.367188 -8.730469 3.339844 -8.730469 L 2.117188 -8.730469 C 1.089844 -8.730469 0.546875 -8.1875 0.546875 -7.160156 Z M 2.433594 -1.40625 C 2.148438 -1.40625 1.996094 -1.550781 1.996094 -1.84375 L 1.996094 -6.886719 C 1.996094 -7.171875 2.148438 -7.324219 2.433594 -7.324219 L 3.066406 -7.324219 C 3.351562 -7.324219 3.503906 -7.171875 3.503906 -6.886719 L 3.503906 -1.84375 C 3.503906 -1.550781 3.351562 -1.40625 3.066406 -1.40625 Z M 2.433594 -1.40625 "/></g></g></g></svg>