<svg xmlns="http://www.w3.org/2000/svg" xmlns:xlink="http://www.w3.org/1999/xlink" width="1920" zoomAndPan="magnify" viewBox="0 0 1440 809.999993" height="1080" preserveAspectRatio="xMidYMid meet" version="1.0"><defs><g/></defs><path fill="#0f92e0" d="M 719.851562 377.289062 C 683.289062 398.417969 659.691406 379.957031 657.566406 384.75 C 655.929688 388.445312 663.058594 415.039062 726.359375 424.90625 C 732.625 419.765625 725.167969 409.324219 726.148438 401.273438 C 727.125 393.222656 724.703125 383.78125 719.851562 377.289062 Z M 719.851562 377.289062 " fill-opacity="1" fill-rule="nonzero"/><path fill="#00598f" d="M 726.363281 426.113281 C 726.304688 426.113281 726.246094 426.109375 726.1875 426.097656 C 677.546875 419.015625 662.683594 400.796875 658.550781 393.292969 C 656.5 389.570312 655.683594 386.027344 656.464844 384.261719 C 657.5 381.917969 660.382812 382.628906 665.15625 383.800781 C 675.210938 386.277344 693.921875 390.878906 719.25 376.242188 C 719.824219 375.90625 720.5625 376.105469 720.894531 376.683594 C 721.226562 377.261719 721.03125 378 720.453125 378.332031 C 694.289062 393.453125 674.222656 388.519531 664.582031 386.148438 C 662.171875 385.554688 659.167969 384.8125 658.667969 385.230469 C 658.449219 385.722656 658.527344 388.253906 660.660156 392.125 C 664.617188 399.3125 678.964844 416.78125 726.535156 423.710938 C 727.191406 423.804688 727.648438 424.417969 727.554688 425.078125 C 727.464844 425.679688 726.949219 426.113281 726.363281 426.113281 Z M 726.363281 426.113281 " fill-opacity="1" fill-rule="nonzero"/><path fill="#abe0ff" d="M 661.019531 410.199219 L 592.398438 410.199219 C 588.4375 410.199219 585.230469 406.984375 585.230469 403.015625 L 585.230469 366.433594 C 585.230469 362.46875 588.4375 359.253906 592.398438 359.253906 L 661.019531 359.253906 C 664.980469 359.253906 668.1875 362.46875 668.1875 366.433594 L 668.1875 403.015625 C 668.1875 406.984375 664.976562 410.199219 661.019531 410.199219 Z M 661.019531 410.199219 " fill-opacity="1" fill-rule="nonzero"/><path fill="#52b1eb" d="M 660.386719 411.195312 L 592.933594 411.195312 C 588.023438 411.195312 584.023438 407.1875 584.023438 402.265625 L 584.023438 366.644531 C 584.023438 361.722656 588.023438 357.71875 592.933594 357.71875 L 660.386719 357.71875 C 665.300781 357.71875 669.296875 361.722656 669.296875 366.644531 L 669.296875 402.265625 C 669.296875 407.1875 665.300781 411.195312 660.386719 411.195312 Z M 592.933594 360.132812 C 589.351562 360.132812 586.433594 363.054688 586.433594 366.648438 L 586.433594 402.265625 C 586.433594 405.855469 589.351562 408.78125 592.933594 408.78125 L 660.386719 408.78125 C 663.972656 408.78125 666.886719 405.855469 666.886719 402.265625 L 666.886719 366.648438 C 666.886719 363.054688 663.972656 360.132812 660.386719 360.132812 Z M 592.933594 360.132812 " fill-opacity="1" fill-rule="nonzero"/><path fill="#0f92e0" d="M 851.773438 322.21875 C 853.152344 323.484375 854.621094 325.152344 854.226562 326.984375 C 853.808594 328.921875 851.609375 329.789062 849.738281 330.4375 C 836.226562 335.132812 824.480469 344.757812 817.207031 357.097656 L 784.464844 294.710938 C 809.195312 295.527344 833.523438 305.472656 851.773438 322.21875 Z M 851.773438 322.21875 " fill-opacity="1" fill-rule="nonzero"/><path fill="#00598f" d="M 817.207031 358.304688 C 817.195312 358.304688 817.1875 358.304688 817.175781 358.304688 C 816.738281 358.292969 816.34375 358.046875 816.140625 357.660156 L 783.398438 295.273438 C 783.199219 294.890625 783.214844 294.433594 783.445312 294.070312 C 783.671875 293.703125 784.074219 293.460938 784.503906 293.503906 C 809.402344 294.328125 834.21875 304.46875 852.585938 321.328125 C 854.054688 322.675781 855.941406 324.75 855.402344 327.238281 C 854.816406 329.953125 851.886719 330.972656 850.136719 331.578125 C 836.957031 336.15625 825.335938 345.679688 818.242188 357.710938 C 818.027344 358.078125 817.632812 358.304688 817.207031 358.304688 Z M 786.507812 296.007812 L 817.289062 354.660156 C 824.738281 343.007812 836.3125 333.824219 849.347656 329.296875 C 850.992188 328.726562 852.773438 328.011719 853.050781 326.730469 C 853.257812 325.757812 852.59375 324.609375 850.960938 323.105469 C 833.519531 307.101562 810.136719 297.292969 786.507812 296.007812 Z M 786.507812 296.007812 " fill-opacity="1" fill-rule="nonzero"/><path fill="#0f92e0" d="M 692.304688 482.34375 C 677.894531 484.566406 666.820312 488.34375 666.820312 488.34375 C 666.820312 488.34375 741.027344 530.972656 788.933594 475.535156 C 815.535156 444.75 822.730469 402.480469 823.8125 381.148438 C 826.128906 335.582031 802.078125 288.269531 756.96875 284.152344 C 714.242188 280.265625 677.796875 314.152344 664.265625 337.585938 C 665.90625 347.042969 682.726562 372.105469 707.207031 387.304688 C 733.34375 419.261719 725.378906 470.765625 698.738281 480.664062 C 696.726562 481.425781 694.570312 481.980469 692.304688 482.34375 Z M 692.304688 482.34375 " fill-opacity="1" fill-rule="nonzero"/><path fill="#3bb7ff" d="M 676.953125 320.429688 C 694.855469 304.253906 720.027344 290.753906 747.847656 293.289062 C 792.957031 297.40625 817.007812 344.722656 814.691406 390.285156 C 813.609375 411.621094 806.414062 453.886719 779.8125 484.671875 L 779.8125 484.6875 C 782.933594 481.992188 785.980469 478.949219 788.933594 475.535156 C 815.535156 444.75 822.730469 402.480469 823.8125 381.148438 C 826.128906 335.582031 802.078125 288.269531 756.96875 284.152344 C 724.027344 281.15625 694.808594 300.617188 676.953125 320.429688 Z M 676.953125 320.429688 " fill-opacity="1" fill-rule="nonzero"/><path fill="#00598f" d="M 725.953125 505.175781 C 720.199219 505.175781 714.734375 504.679688 709.730469 503.921875 C 685.25 500.203125 666.40625 489.5 666.222656 489.390625 C 665.808594 489.152344 665.574219 488.699219 665.621094 488.226562 C 665.667969 487.753906 665.984375 487.351562 666.433594 487.199219 C 666.542969 487.160156 677.769531 483.363281 692.113281 481.148438 C 694.328125 480.796875 696.414062 480.253906 698.3125 479.535156 C 708.167969 475.871094 715.953125 465.863281 719.683594 452.070312 C 725.542969 430.402344 720.328125 405.367188 706.402344 388.222656 C 680.945312 372.347656 664.667969 346.976562 663.078125 337.792969 C 663.03125 337.515625 663.082031 337.226562 663.222656 336.980469 C 677.019531 313.085938 713.40625 278.976562 757.074219 282.949219 C 804.226562 287.25 827.273438 336.785156 825.015625 381.207031 C 824.328125 394.769531 819.753906 441.710938 789.84375 476.324219 C 770.269531 498.976562 746.3125 505.175781 725.953125 505.175781 Z M 669.9375 488.628906 C 675.796875 491.589844 691.269531 498.6875 710.164062 501.546875 C 742.265625 506.394531 768.457031 497.382812 788.023438 474.742188 C 817.429688 440.710938 821.929688 394.453125 822.609375 381.085938 C 824.808594 337.785156 802.511719 289.519531 756.859375 285.355469 C 714.855469 281.515625 678.699219 315.328125 665.535156 337.800781 C 667.460938 346.761719 683.640625 371.253906 707.84375 386.277344 C 707.953125 386.347656 708.054688 386.4375 708.140625 386.539062 C 722.636719 404.269531 728.082031 430.238281 722.007812 452.703125 C 718.074219 467.257812 709.742188 477.863281 699.15625 481.796875 C 697.109375 482.570312 694.867188 483.15625 692.492188 483.535156 C 692.492188 483.535156 692.488281 483.535156 692.488281 483.535156 C 682.511719 485.074219 674.074219 487.386719 669.9375 488.628906 Z M 692.304688 482.34375 L 692.316406 482.34375 Z M 692.304688 482.34375 " fill-opacity="1" fill-rule="nonzero"/><path fill="#ffffff" d="M 707.207031 387.304688 C 733.339844 419.261719 725.378906 470.765625 698.738281 480.664062 C 760.835938 476.546875 791.65625 418.199219 766.800781 344.167969 C 749.171875 334.304688 697.484375 329.363281 664.265625 337.585938 C 665.90625 347.039062 682.722656 372.101562 707.207031 387.304688 Z M 707.207031 387.304688 " fill-opacity="1" fill-rule="nonzero"/><path fill="#00598f" d="M 698.738281 481.871094 C 698.171875 481.871094 697.679688 481.476562 697.558594 480.917969 C 697.433594 480.332031 697.757812 479.742188 698.316406 479.53125 C 708.167969 475.871094 715.953125 465.863281 719.683594 452.070312 C 725.542969 430.402344 720.328125 405.367188 706.402344 388.222656 C 680.945312 372.351562 664.667969 346.976562 663.078125 337.792969 C 662.96875 337.167969 663.363281 336.566406 663.976562 336.414062 C 697.523438 328.109375 749.75 333.242188 767.386719 343.113281 C 767.648438 343.257812 767.847656 343.496094 767.941406 343.78125 C 781.324219 383.632812 779.007812 421.4375 761.589844 447.496094 C 747.964844 467.882812 725.671875 480.089844 698.816406 481.867188 C 698.789062 481.871094 698.761719 481.871094 698.738281 481.871094 Z M 665.699219 338.480469 C 668.253906 347.945312 684.230469 371.617188 707.84375 386.277344 C 707.953125 386.347656 708.054688 386.4375 708.140625 386.539062 C 722.636719 404.269531 728.082031 430.238281 722.007812 452.703125 C 718.824219 464.492188 712.753906 473.6875 704.933594 478.847656 C 728.464844 475.800781 747.273438 464.578125 759.589844 446.152344 C 776.523438 420.820312 778.78125 383.972656 765.808594 345 C 748.355469 335.589844 698.53125 330.753906 665.699219 338.480469 Z M 665.699219 338.480469 " fill-opacity="1" fill-rule="nonzero"/><path fill="#0f92e0" d="M 695.675781 481.703125 C 698.445312 462.691406 685.183594 438.171875 660.886719 429.304688 C 673.644531 459.441406 671.871094 471.101562 672.144531 477.230469 C 661.066406 481.699219 649.191406 486.679688 620.207031 479.914062 C 630.023438 502.632812 670.238281 512.203125 691.929688 498.378906 Z M 695.675781 481.703125 " fill-opacity="1" fill-rule="nonzero"/><path fill="#00598f" d="M 667.1875 506.019531 C 660.910156 506.019531 654.367188 505.054688 647.972656 503.085938 C 634 498.789062 623.476562 490.519531 619.101562 480.394531 C 618.921875 479.972656 618.992188 479.492188 619.285156 479.140625 C 619.574219 478.789062 620.035156 478.632812 620.484375 478.738281 C 648.421875 485.261719 659.960938 480.84375 670.914062 476.425781 C 670.902344 475.878906 670.902344 475.292969 670.902344 474.660156 C 670.882812 468.113281 670.851562 455.933594 659.777344 429.773438 C 659.589844 429.332031 659.683594 428.820312 660.011719 428.472656 C 660.34375 428.125 660.851562 428.003906 661.300781 428.167969 C 686.75 437.457031 699.578125 463.277344 696.871094 481.875 C 696.773438 482.535156 696.15625 483 695.503906 482.894531 C 694.84375 482.800781 694.390625 482.1875 694.484375 481.527344 C 696.960938 464.511719 685.664062 441.101562 663.097656 431.476562 C 673.261719 456.273438 673.292969 468.164062 673.308594 474.652344 C 673.3125 475.59375 673.3125 476.429688 673.347656 477.175781 C 673.371094 477.6875 673.066406 478.160156 672.59375 478.351562 L 672.265625 478.484375 C 661.675781 482.761719 649.710938 487.59375 622.390625 481.644531 C 627.003906 490.113281 636.433594 497.015625 648.679688 500.78125 C 664.171875 505.542969 680.5 504.234375 691.285156 497.359375 C 691.84375 497.003906 692.589844 497.171875 692.945312 497.730469 C 693.304688 498.296875 693.136719 499.039062 692.574219 499.398438 C 685.710938 503.773438 676.761719 506.019531 667.1875 506.019531 Z M 667.1875 506.019531 " fill-opacity="1" fill-rule="nonzero"/><path fill="#ffffff" d="M 789.015625 319.222656 C 789.015625 319.871094 788.984375 320.523438 788.917969 321.167969 C 788.855469 321.816406 788.761719 322.460938 788.632812 323.097656 C 788.507812 323.734375 788.347656 324.367188 788.160156 324.988281 C 787.972656 325.613281 787.753906 326.222656 787.503906 326.824219 C 787.257812 327.425781 786.980469 328.011719 786.671875 328.585938 C 786.367188 329.160156 786.035156 329.71875 785.671875 330.257812 C 785.3125 330.800781 784.925781 331.320312 784.515625 331.824219 C 784.101562 332.328125 783.667969 332.808594 783.207031 333.269531 C 782.75 333.730469 782.269531 334.167969 781.765625 334.578125 C 781.265625 334.992188 780.742188 335.378906 780.203125 335.742188 C 779.664062 336.101562 779.105469 336.4375 778.535156 336.742188 C 777.960938 337.050781 777.375 337.328125 776.777344 337.574219 C 776.175781 337.824219 775.566406 338.042969 774.945312 338.234375 C 774.324219 338.421875 773.695312 338.578125 773.058594 338.707031 C 772.417969 338.832031 771.777344 338.929688 771.132812 338.992188 C 770.484375 339.054688 769.839844 339.089844 769.1875 339.089844 C 768.539062 339.089844 767.890625 339.054688 767.246094 338.992188 C 766.597656 338.929688 765.957031 338.832031 765.320312 338.707031 C 764.683594 338.578125 764.054688 338.421875 763.433594 338.234375 C 762.8125 338.042969 762.203125 337.824219 761.601562 337.574219 C 761 337.328125 760.414062 337.050781 759.84375 336.742188 C 759.269531 336.4375 758.714844 336.101562 758.175781 335.742188 C 757.632812 335.378906 757.113281 334.992188 756.613281 334.578125 C 756.109375 334.167969 755.628906 333.730469 755.167969 333.269531 C 754.710938 332.808594 754.273438 332.328125 753.863281 331.824219 C 753.453125 331.320312 753.066406 330.800781 752.703125 330.257812 C 752.34375 329.71875 752.011719 329.160156 751.703125 328.585938 C 751.398438 328.011719 751.121094 327.425781 750.871094 326.824219 C 750.625 326.222656 750.40625 325.613281 750.214844 324.988281 C 750.027344 324.367188 749.871094 323.734375 749.742188 323.097656 C 749.617188 322.460938 749.523438 321.816406 749.457031 321.167969 C 749.394531 320.523438 749.363281 319.871094 749.363281 319.222656 C 749.363281 318.570312 749.394531 317.921875 749.457031 317.273438 C 749.523438 316.628906 749.617188 315.984375 749.742188 315.347656 C 749.871094 314.707031 750.027344 314.078125 750.214844 313.457031 C 750.40625 312.832031 750.625 312.222656 750.871094 311.621094 C 751.121094 311.019531 751.398438 310.429688 751.703125 309.859375 C 752.011719 309.285156 752.34375 308.726562 752.703125 308.183594 C 753.066406 307.644531 753.453125 307.121094 753.863281 306.621094 C 754.273438 306.117188 754.710938 305.636719 755.167969 305.175781 C 755.628906 304.714844 756.109375 304.277344 756.613281 303.867188 C 757.113281 303.453125 757.632812 303.066406 758.175781 302.703125 C 758.714844 302.34375 759.269531 302.007812 759.84375 301.703125 C 760.414062 301.394531 761 301.117188 761.601562 300.867188 C 762.203125 300.621094 762.8125 300.402344 763.433594 300.210938 C 764.054688 300.023438 764.683594 299.863281 765.320312 299.738281 C 765.957031 299.609375 766.597656 299.515625 767.246094 299.453125 C 767.890625 299.386719 768.539062 299.355469 769.1875 299.355469 C 769.839844 299.355469 770.484375 299.386719 771.132812 299.453125 C 771.777344 299.515625 772.417969 299.609375 773.058594 299.738281 C 773.695312 299.863281 774.324219 300.023438 774.945312 300.210938 C 775.566406 300.402344 776.175781 300.621094 776.777344 300.867188 C 777.375 301.117188 777.960938 301.394531 778.535156 301.703125 C 779.105469 302.007812 779.664062 302.34375 780.203125 302.703125 C 780.742188 303.066406 781.265625 303.453125 781.765625 303.867188 C 782.269531 304.277344 782.75 304.714844 783.207031 305.175781 C 783.667969 305.636719 784.101562 306.117188 784.515625 306.621094 C 784.925781 307.121094 785.3125 307.644531 785.671875 308.183594 C 786.035156 308.726562 786.367188 309.285156 786.671875 309.859375 C 786.980469 310.429688 787.257812 311.019531 787.503906 311.621094 C 787.753906 312.222656 787.972656 312.832031 788.160156 313.457031 C 788.347656 314.078125 788.507812 314.707031 788.632812 315.347656 C 788.761719 315.984375 788.855469 316.628906 788.917969 317.273438 C 788.984375 317.921875 789.015625 318.570312 789.015625 319.222656 Z M 789.015625 319.222656 " fill-opacity="1" fill-rule="nonzero"/><path fill="#000000" d="M 769.117188 340.339844 C 757.523438 340.339844 748.09375 330.890625 748.09375 319.273438 C 748.09375 307.65625 757.523438 298.207031 769.117188 298.207031 C 780.707031 298.207031 790.136719 307.65625 790.136719 319.273438 C 790.136719 330.890625 780.707031 340.339844 769.117188 340.339844 Z M 769.117188 300.621094 C 758.851562 300.621094 750.503906 308.988281 750.503906 319.273438 C 750.503906 329.558594 758.851562 337.921875 769.117188 337.921875 C 779.378906 337.921875 787.726562 329.558594 787.726562 319.273438 C 787.726562 308.988281 779.378906 300.621094 769.117188 300.621094 Z M 769.117188 300.621094 " fill-opacity="1" fill-rule="nonzero"/><path fill="#000000" d="M 754.105469 319.269531 C 754.105469 325.8125 759.398438 331.105469 765.929688 331.105469 C 772.449219 331.105469 777.742188 325.8125 777.742188 319.269531 C 777.742188 312.734375 772.449219 307.433594 765.929688 307.433594 C 762.605469 307.433594 759.601562 308.800781 757.460938 311.019531 C 760.160156 314.117188 761.496094 317.148438 760.480469 318.15625 C 759.589844 319.046875 757.1875 318.144531 754.53125 316.109375 C 754.253906 317.117188 754.105469 318.175781 754.105469 319.269531 Z M 754.105469 319.269531 " fill-opacity="1" fill-rule="nonzero"/><path fill="#ffffff" d="M 712.203125 319.273438 C 712.203125 319.925781 712.167969 320.574219 712.105469 321.21875 C 712.042969 321.867188 711.949219 322.511719 711.820312 323.148438 C 711.695312 323.785156 711.535156 324.417969 711.347656 325.039062 C 711.160156 325.660156 710.941406 326.273438 710.691406 326.875 C 710.445312 327.472656 710.167969 328.0625 709.863281 328.636719 C 709.554688 329.207031 709.222656 329.765625 708.863281 330.304688 C 708.5 330.847656 708.113281 331.367188 707.703125 331.871094 C 707.292969 332.375 706.855469 332.855469 706.398438 333.316406 C 705.9375 333.773438 705.457031 334.210938 704.957031 334.625 C 704.453125 335.035156 703.933594 335.421875 703.394531 335.785156 C 702.855469 336.144531 702.296875 336.480469 701.726562 336.785156 C 701.152344 337.09375 700.566406 337.371094 699.96875 337.621094 C 699.367188 337.867188 698.757812 338.085938 698.136719 338.277344 C 697.515625 338.464844 696.886719 338.625 696.25 338.75 C 695.613281 338.875 694.972656 338.972656 694.328125 339.035156 C 693.679688 339.101562 693.035156 339.132812 692.382812 339.132812 C 691.734375 339.132812 691.085938 339.101562 690.441406 339.035156 C 689.796875 338.972656 689.15625 338.875 688.519531 338.75 C 687.882812 338.625 687.253906 338.464844 686.632812 338.277344 C 686.011719 338.085938 685.398438 337.867188 684.800781 337.621094 C 684.199219 337.371094 683.613281 337.09375 683.042969 336.785156 C 682.46875 336.480469 681.914062 336.144531 681.375 335.785156 C 680.835938 335.421875 680.3125 335.035156 679.8125 334.625 C 679.308594 334.210938 678.832031 333.773438 678.371094 333.316406 C 677.914062 332.855469 677.476562 332.375 677.066406 331.871094 C 676.652344 331.367188 676.265625 330.847656 675.90625 330.304688 C 675.546875 329.765625 675.210938 329.207031 674.90625 328.636719 C 674.601562 328.0625 674.324219 327.472656 674.074219 326.875 C 673.828125 326.273438 673.609375 325.660156 673.421875 325.039062 C 673.230469 324.417969 673.074219 323.785156 672.949219 323.148438 C 672.820312 322.511719 672.726562 321.867188 672.664062 321.21875 C 672.597656 320.574219 672.566406 319.925781 672.566406 319.273438 C 672.566406 318.625 672.597656 317.976562 672.664062 317.328125 C 672.726562 316.679688 672.820312 316.039062 672.949219 315.398438 C 673.074219 314.761719 673.230469 314.132812 673.421875 313.511719 C 673.609375 312.886719 673.828125 312.277344 674.074219 311.675781 C 674.324219 311.074219 674.601562 310.488281 674.90625 309.914062 C 675.210938 309.339844 675.546875 308.78125 675.90625 308.242188 C 676.265625 307.703125 676.652344 307.179688 677.066406 306.675781 C 677.476562 306.175781 677.914062 305.691406 678.371094 305.234375 C 678.832031 304.773438 679.308594 304.335938 679.8125 303.925781 C 680.3125 303.511719 680.835938 303.125 681.375 302.761719 C 681.914062 302.402344 682.46875 302.066406 683.042969 301.761719 C 683.613281 301.453125 684.199219 301.175781 684.800781 300.929688 C 685.398438 300.679688 686.011719 300.460938 686.632812 300.273438 C 687.253906 300.082031 687.882812 299.925781 688.519531 299.796875 C 689.15625 299.671875 689.796875 299.578125 690.441406 299.511719 C 691.085938 299.449219 691.734375 299.417969 692.382812 299.417969 C 693.035156 299.417969 693.679688 299.449219 694.328125 299.511719 C 694.972656 299.578125 695.613281 299.671875 696.25 299.796875 C 696.886719 299.925781 697.515625 300.082031 698.136719 300.273438 C 698.757812 300.460938 699.367188 300.679688 699.96875 300.929688 C 700.566406 301.175781 701.152344 301.453125 701.726562 301.761719 C 702.296875 302.066406 702.855469 302.402344 703.394531 302.761719 C 703.933594 303.125 704.453125 303.511719 704.957031 303.925781 C 705.457031 304.335938 705.9375 304.773438 706.398438 305.234375 C 706.855469 305.691406 707.292969 306.175781 707.703125 306.675781 C 708.113281 307.179688 708.5 307.703125 708.863281 308.242188 C 709.222656 308.78125 709.554688 309.339844 709.863281 309.914062 C 710.167969 310.488281 710.445312 311.074219 710.691406 311.675781 C 710.941406 312.277344 711.160156 312.886719 711.347656 313.511719 C 711.535156 314.132812 711.695312 314.761719 711.820312 315.398438 C 711.949219 316.039062 712.042969 316.679688 712.105469 317.328125 C 712.167969 317.976562 712.203125 318.625 712.203125 319.273438 Z M 712.203125 319.273438 " fill-opacity="1" fill-rule="nonzero"/><path fill="#000000" d="M 692.386719 340.339844 C 680.796875 340.339844 671.367188 330.890625 671.367188 319.273438 C 671.367188 307.65625 680.796875 298.207031 692.386719 298.207031 C 703.980469 298.207031 713.410156 307.65625 713.410156 319.273438 C 713.410156 330.890625 703.980469 340.339844 692.386719 340.339844 Z M 692.386719 300.621094 C 682.125 300.621094 673.777344 308.988281 673.777344 319.273438 C 673.777344 329.558594 682.125 337.921875 692.386719 337.921875 C 702.652344 337.921875 711 329.558594 711 319.273438 C 711 308.988281 702.652344 300.621094 692.386719 300.621094 Z M 692.386719 300.621094 " fill-opacity="1" fill-rule="nonzero"/><path fill="#000000" d="M 687.414062 319.269531 C 687.414062 325.8125 692.707031 331.105469 699.226562 331.105469 C 705.746094 331.105469 711.039062 325.8125 711.039062 319.269531 C 711.039062 312.734375 705.746094 307.433594 699.226562 307.433594 C 695.914062 307.433594 692.917969 308.800781 690.769531 311.007812 C 693.46875 314.117188 694.789062 317.148438 693.773438 318.15625 C 692.894531 319.046875 690.492188 318.144531 687.835938 316.121094 C 687.5625 317.128906 687.414062 318.175781 687.414062 319.269531 Z M 687.414062 319.269531 " fill-opacity="1" fill-rule="nonzero"/><path fill="#00598f" d="M 744.257812 287.609375 C 743.367188 289.339844 745.535156 292.226562 749.09375 294.066406 C 752.652344 295.902344 756.257812 295.988281 757.148438 294.261719 C 758.035156 292.53125 755.871094 289.640625 752.308594 287.804688 C 748.75 285.96875 745.144531 285.882812 744.257812 287.609375 Z M 744.257812 287.609375 " fill-opacity="1" fill-rule="nonzero"/><path fill="#003657" d="M 754.296875 296.710938 C 754.226562 296.710938 754.160156 296.707031 754.09375 296.707031 C 752.394531 296.664062 750.421875 296.109375 748.542969 295.136719 C 746.660156 294.167969 745.066406 292.882812 744.042969 291.523438 C 742.835938 289.914062 742.535156 288.328125 743.183594 287.058594 C 743.839844 285.789062 745.304688 285.128906 747.308594 285.164062 C 749.007812 285.203125 750.980469 285.761719 752.863281 286.734375 C 754.742188 287.703125 756.339844 288.988281 757.359375 290.347656 C 758.566406 291.957031 758.871094 293.542969 758.21875 294.8125 C 757.589844 296.039062 756.199219 296.710938 754.296875 296.710938 Z M 747.117188 287.574219 C 746.207031 287.574219 745.511719 287.800781 745.328125 288.164062 C 745.132812 288.542969 745.386719 289.292969 745.96875 290.070312 C 746.765625 291.132812 748.105469 292.195312 749.644531 292.992188 C 751.183594 293.785156 752.828125 294.261719 754.152344 294.292969 C 755.125 294.316406 755.878906 294.085938 756.074219 293.707031 C 756.269531 293.328125 756.015625 292.578125 755.433594 291.800781 C 754.636719 290.738281 753.296875 289.675781 751.757812 288.878906 C 750.21875 288.085938 748.574219 287.609375 747.25 287.578125 C 747.207031 287.578125 747.160156 287.574219 747.117188 287.574219 Z M 747.117188 287.574219 " fill-opacity="1" fill-rule="nonzero"/><path fill="#00598f" d="M 715.027344 287.609375 C 715.917969 289.339844 713.75 292.226562 710.191406 294.066406 C 706.632812 295.902344 703.023438 295.988281 702.136719 294.261719 C 701.25 292.53125 703.414062 289.640625 706.972656 287.804688 C 710.535156 285.96875 714.140625 285.882812 715.027344 287.609375 Z M 715.027344 287.609375 " fill-opacity="1" fill-rule="nonzero"/><path fill="#003657" d="M 704.988281 296.710938 C 703.085938 296.710938 701.695312 296.039062 701.066406 294.8125 C 700.414062 293.542969 700.71875 291.957031 701.925781 290.351562 C 702.945312 288.988281 704.542969 287.703125 706.421875 286.734375 C 708.304688 285.761719 710.273438 285.207031 711.972656 285.164062 C 713.980469 285.128906 715.445312 285.789062 716.097656 287.058594 C 716.75 288.328125 716.445312 289.914062 715.238281 291.523438 C 714.21875 292.882812 712.621094 294.167969 710.742188 295.136719 C 708.859375 296.109375 706.890625 296.667969 705.191406 296.707031 C 705.125 296.707031 705.054688 296.710938 704.988281 296.710938 Z M 712.167969 287.574219 C 712.125 287.574219 712.078125 287.578125 712.03125 287.578125 C 710.707031 287.609375 709.066406 288.085938 707.527344 288.878906 C 705.984375 289.675781 704.644531 290.738281 703.851562 291.800781 C 703.265625 292.578125 703.015625 293.328125 703.207031 293.707031 C 703.402344 294.085938 704.152344 294.320312 705.132812 294.292969 C 706.457031 294.261719 708.097656 293.785156 709.636719 292.992188 C 711.179688 292.195312 712.519531 291.132812 713.3125 290.070312 C 713.898438 289.292969 714.152344 288.542969 713.957031 288.164062 C 713.769531 287.800781 713.078125 287.574219 712.167969 287.574219 Z M 712.167969 287.574219 " fill-opacity="1" fill-rule="nonzero"/><path fill="#0f92e0" d="M 780.773438 415.929688 C 821.964844 425.144531 826.890625 454.738281 831.6875 452.648438 C 835.390625 451.035156 845.757812 425.558594 814.707031 386.097656 C 806.625 385.636719 798.480469 388.730469 792.328125 393.996094 C 786.175781 399.265625 781.585938 407.859375 780.773438 415.929688 Z M 780.773438 415.929688 " fill-opacity="1" fill-rule="nonzero"/><path fill="#00598f" d="M 831.140625 453.984375 C 829.300781 453.984375 827.765625 451.675781 825.457031 448.203125 C 819.722656 439.566406 809.046875 423.492188 780.511719 417.105469 C 779.859375 416.960938 779.453125 416.316406 779.597656 415.667969 C 779.742188 415.015625 780.390625 414.601562 781.035156 414.75 C 810.515625 421.347656 821.960938 438.582031 827.464844 446.863281 C 828.839844 448.933594 830.550781 451.511719 831.199219 451.542969 C 831.714844 451.320312 833.167969 449.472656 834.183594 445.429688 C 836.050781 437.992188 837.800781 417.398438 813.761719 386.84375 C 813.347656 386.324219 813.4375 385.5625 813.960938 385.148438 C 814.484375 384.738281 815.242188 384.828125 815.652344 385.351562 C 840.351562 416.742188 838.472656 438.234375 836.519531 446.019531 C 835.503906 450.0625 833.839844 453.027344 832.167969 453.753906 C 831.8125 453.910156 831.46875 453.984375 831.140625 453.984375 Z M 831.140625 453.984375 " fill-opacity="1" fill-rule="nonzero"/><path fill="#000000" d="M 729.363281 368.863281 C 722.761719 368.863281 716.148438 366.046875 711.644531 361.203125 C 711.191406 360.714844 711.21875 359.949219 711.707031 359.496094 C 712.195312 359.042969 712.957031 359.070312 713.410156 359.558594 C 717.972656 364.464844 724.933594 367.058594 731.59375 366.328125 C 738.246094 365.59375 744.484375 361.546875 747.875 355.765625 C 748.210938 355.191406 748.949219 355 749.523438 355.335938 C 750.097656 355.675781 750.289062 356.414062 749.953125 356.992188 C 746.183594 363.417969 739.25 367.914062 731.855469 368.726562 C 731.027344 368.816406 730.195312 368.863281 729.363281 368.863281 Z M 729.363281 368.863281 " fill-opacity="1" fill-rule="nonzero"/><path fill="#000000" d="M 753.347656 359.253906 C 753.0625 359.253906 752.777344 359.152344 752.546875 358.949219 C 750.578125 357.199219 747.9375 356.277344 745.3125 356.441406 C 744.640625 356.472656 744.078125 355.972656 744.039062 355.308594 C 743.996094 354.640625 744.503906 354.070312 745.167969 354.03125 C 748.429688 353.835938 751.703125 354.96875 754.148438 357.144531 C 754.644531 357.585938 754.691406 358.351562 754.25 358.847656 C 754.011719 359.117188 753.679688 359.253906 753.347656 359.253906 Z M 753.347656 359.253906 " fill-opacity="1" fill-rule="nonzero"/><g fill="#ffffff" fill-opacity="1"><g transform="translate(587.905412, 391.701533)"><g><path d="M 11.757812 -8.460938 L 4.507812 -8.460938 L 4.507812 -14.441406 L 1.230469 -14.441406 L 1.230469 0 L 4.507812 0 L 4.507812 -5.589844 L 11.757812 -5.589844 L 11.757812 0 L 15.035156 0 L 15.035156 -14.441406 L 11.757812 -14.441406 Z M 11.757812 -8.460938 "/></g></g></g><g fill="#ffffff" fill-opacity="1"><g transform="translate(604.160645, 391.701533)"><g><path d="M 11.53125 0 L 11.53125 -2.867188 L 4.507812 -2.867188 L 4.507812 -5.796875 L 10.507812 -5.796875 L 10.507812 -8.664062 L 4.507812 -8.664062 L 4.507812 -11.574219 L 11.53125 -11.574219 L 11.53125 -14.441406 L 1.230469 -14.441406 L 1.230469 0 Z M 11.53125 0 "/></g></g></g><g fill="#ffffff" fill-opacity="1"><g transform="translate(616.505615, 391.701533)"><g><path d="M 11.53125 0 L 11.53125 -2.867188 L 4.507812 -2.664062 L 4.507812 -14.441406 L 1.230469 -14.441406 L 1.230469 -1.515625 C 1.230469 -0.390625 1.863281 0.226562 2.992188 0.203125 Z M 11.53125 0 "/></g></g></g><g fill="#ffffff" fill-opacity="1"><g transform="translate(628.441127, 391.701533)"><g><path d="M 11.53125 0 L 11.53125 -2.867188 L 4.507812 -2.664062 L 4.507812 -14.441406 L 1.230469 -14.441406 L 1.230469 -1.515625 C 1.230469 -0.390625 1.863281 0.226562 2.992188 0.203125 Z M 11.53125 0 "/></g></g></g><g fill="#ffffff" fill-opacity="1"><g transform="translate(640.376639, 391.701533)"><g><path d="M 1.023438 -7.230469 C 1.023438 -3.011719 3.808594 0.203125 8.398438 0.203125 C 12.964844 0.203125 15.75 -3.011719 15.75 -7.230469 C 15.75 -11.429688 12.964844 -14.644531 8.398438 -14.644531 C 3.808594 -14.644531 1.023438 -11.429688 1.023438 -7.230469 Z M 4.300781 -7.230469 C 4.300781 -9.996094 5.671875 -11.777344 8.398438 -11.777344 C 11.121094 -11.777344 12.472656 -9.996094 12.472656 -7.230469 C 12.472656 -4.445312 11.121094 -2.664062 8.398438 -2.664062 C 5.671875 -2.664062 4.300781 -4.445312 4.300781 -7.230469 Z M 4.300781 -7.230469 "/></g></g></g><g fill="#ffffff" fill-opacity="1"><g transform="translate(657.143686, 391.701533)"><g><path d="M 2.664062 -5.304688 L 4.710938 -5.304688 L 5.324219 -14.441406 L 2.046875 -14.441406 Z M 3.667969 0.203125 C 5.019531 0.203125 5.941406 -0.777344 5.941406 -2.070312 C 5.941406 -3.316406 5.019531 -4.300781 3.667969 -4.300781 C 2.273438 -4.300781 1.433594 -3.316406 1.433594 -2.070312 C 1.433594 -0.777344 2.273438 0.203125 3.667969 0.203125 Z M 3.667969 0.203125 "/></g></g></g></svg>